PathFileType	4	(X/Y/Z)	C:\Users\WrightLab\Desktop\Jo\P2_Trial14.trc
DataRate	CameraRate	NumFrames	NumMarkers	Units	OrigDataRate	OrigDataStartFrame	OrigNumFrames
100.00	100.00	       11	19	mm	100.00	489	       781
Frame#	Time	Headset_Front			Headset_Back			Headset_Left			Headset_Right			Left_Shoulder			Right_Shoulder			Sternum			C7			Left Elbow			Right Elbow			Left Wrist			Right Wrist			Left ASIS			Right ASIS			S2			Left Knee			Right Knee			Left Ankle			Right Ankle			
		X1	Y1	Z1	X2	Y2	Z2	X3	Y3	Z3	X4	Y4	Z4	X5	Y5	Z5	X6	Y6	Z6	X7	Y7	Z7	X8	Y8	Z8	X9	Y9	Z9	X10	Y10	Z10	X11	Y11	Z11	X12	Y12	Z12	X13	Y13	Z13	X14	Y14	Z14	X15	Y15	Z15	X16	Y16	Z16	X17	Y17	Z17	X18	Y18	Z18	X19	Y19	Z19	

489	4.880	-260.90152	1372.28113	125.64812	-317.15866	1614.58521	310.53027	-404.28265	1493.64294	222.78909	-176.65326	1465.84314	208.17499	-399.47690	1480.73584	476.08102	-192.89951	1331.07532	285.71262	-362.26935	1284.60596	395.60156	-200.68803	1422.39807	437.19016	-412.48605	1333.24329	753.84406	-73.27264	1033.98596	261.31021	-580.78961	1307.14807	752.16742	-99.10389	865.34576	106.12837	-409.07428	1055.54907	517.32367	-315.60440	1020.34833	432.23160	-192.50055	979.05682	677.98743	-436.88443	485.41898	723.78979	-218.85771	544.31982	418.34390	-314.71817	152.11647	815.31604	-376.47672	142.13559	363.37805	
490	4.890	-262.99634	1370.11169	121.48044	-321.35666	1614.78662	303.73410	-407.69357	1492.65808	216.39433	-179.63800	1465.92627	203.74911	-403.29941	1481.25073	470.43094	-196.12471	1330.96948	280.62906	-365.39243	1284.29431	390.40097	-203.44197	1423.29919	431.44958	-416.13126	1334.11292	747.60809	-74.33349	1034.38623	258.26764	-584.68927	1308.05420	744.28400	-100.12140	864.67017	104.35914	-411.84982	1056.72583	512.51343	-317.98004	1020.96417	429.40598	-195.02005	980.47351	673.09900	-444.37421	486.73260	718.85510	-219.14444	543.68500	418.55219	-321.18723	153.33170	811.63617	-373.25421	140.81770	367.63953	
491	4.900	-266.13495	1370.33606	116.13517	-325.11093	1614.72864	296.47812	-410.87903	1492.20471	209.93431	-182.78419	1465.77271	197.11633	-406.46997	1481.71484	464.66867	-199.58508	1330.88782	275.30167	-368.91190	1284.94250	385.31415	-207.58897	1423.50427	425.98276	-420.25742	1334.65356	741.91583	-75.75971	1034.59607	255.67195	-587.89368	1308.89111	736.02393	-100.00257	864.50824	103.05009	-414.26236	1057.50073	508.06479	-320.33014	1021.66809	423.80219	-197.20096	981.98175	669.60779	-450.39127	488.16214	713.48846	-219.79228	542.94855	419.19904	-328.38766	154.73555	808.04401	-369.15280	137.97833	372.44925	
492	4.910	-268.38113	1369.21375	110.70641	-328.86624	1614.93066	290.04013	-414.30368	1491.55981	203.69591	-185.77010	1465.57495	193.46533	-409.91162	1481.98755	459.32361	-202.00424	1330.98206	269.00473	-371.11172	1284.79236	380.78659	-210.72682	1424.17542	420.16306	-424.39243	1334.94910	736.12787	-76.34507	1035.40027	253.69905	-591.69379	1310.19556	728.53119	-100.33886	866.31335	102.19139	-416.40161	1058.20410	503.54901	-322.95944	1022.25684	418.78372	-200.51988	983.45557	664.95618	-456.72244	490.05020	708.89929	-220.28445	542.68994	420.22177	-337.99673	160.06595	802.99384	-365.61548	135.90881	376.60834	
493	4.920	-270.78171	1369.06079	106.58823	-332.72467	1615.20361	283.58838	-417.50385	1491.35828	198.00470	-188.77937	1465.83118	188.16870	-413.08643	1482.19080	454.14725	-205.16174	1331.00281	264.08563	-375.27420	1286.09912	374.65988	-211.00975	1426.00842	415.95215	-428.00632	1334.76697	730.34094	-77.82729	1035.31750	251.23347	-595.80328	1310.41675	720.79492	-100.61122	866.65826	98.87125	-419.13565	1058.86682	498.96487	-325.72202	1022.10028	415.04416	-202.79454	984.17303	660.49609	-461.88596	490.48352	703.21149	-221.33968	542.66022	421.48819	-344.74921	160.25691	799.54327	-361.00851	134.28479	380.72495	
494	4.930	-273.86267	1367.99194	101.81993	-336.09659	1615.46387	277.42892	-420.38501	1491.03369	191.98198	-192.06050	1465.51978	183.45522	-416.05414	1482.48804	448.84839	-207.36319	1330.61865	259.15707	-377.63211	1285.58765	369.48920	-217.05275	1425.83362	409.44308	-432.18893	1334.76294	724.63177	-78.47127	1036.11304	248.94220	-599.17255	1310.74817	713.20105	-101.18250	866.30420	97.12362	-421.56323	1059.54602	494.83047	-328.28568	1022.50116	411.53705	-205.15686	985.10510	656.54559	-467.49426	492.40176	698.17450	-222.10214	541.98401	423.09528	-351.69366	160.67065	795.91760	-356.49402	131.56958	383.85019	
495	4.940	-276.73074	1367.32239	97.06878	-339.29062	1615.50598	271.48108	-423.37589	1490.58191	186.19261	-194.88257	1465.28381	177.71890	-419.11206	1483.01416	444.11264	-210.56992	1331.00354	253.99921	-380.36557	1286.04761	364.64978	-218.15324	1426.54895	405.41461	-436.37701	1334.15662	719.37634	-79.08718	1036.71802	246.82408	-603.27222	1311.31836	705.73022	-101.11516	867.24426	95.27602	-424.71332	1059.96985	491.06766	-331.26532	1022.78174	406.87863	-207.69949	985.71338	652.50818	-472.63480	493.37381	692.81897	-223.03970	541.68262	423.60934	-360.27673	161.94417	792.17761	-352.16400	129.55971	386.24854	
496	4.950	-279.05658	1366.48511	92.80354	-342.25769	1615.76318	265.51559	-426.17410	1490.28381	180.90698	-198.08942	1465.20166	173.91736	-421.99304	1483.36792	439.43765	-213.30940	1330.83972	249.62749	-382.20963	1285.79956	360.85745	-220.76009	1426.76208	397.63409	-440.24734	1333.97180	713.75543	-80.16261	1037.57764	244.48648	-606.60193	1311.05627	697.39386	-101.05178	868.03375	92.73782	-427.46326	1060.10620	486.56921	-334.04282	1023.66345	402.21097	-209.79257	986.77460	648.12207	-477.28308	494.67020	687.86395	-223.34862	541.00879	423.74310	-367.79904	162.22984	788.38654	-347.66696	127.82719	388.24008	
497	4.960	-282.07590	1365.87573	88.78014	-345.07324	1615.67932	259.98163	-429.47372	1490.07117	176.21831	-200.47995	1464.26904	168.95834	-425.00751	1483.67505	434.70743	-215.95117	1330.67554	245.45697	-384.84198	1285.88794	356.52081	-223.92091	1426.63501	393.23352	-443.97009	1333.05090	708.02094	-79.90530	1038.48535	242.81041	-610.26263	1310.69495	689.28381	-100.74255	868.43408	90.73970	-430.07263	1060.49133	483.17108	-337.09824	1023.19305	398.88010	-212.83667	986.70941	644.01038	-481.40674	495.41385	682.38403	-224.34796	539.19928	423.84625	-375.86075	162.70891	784.92682	-343.72116	126.09486	390.18674	
498	4.970	-284.79080	1364.92285	84.63014	-347.73788	1615.94739	254.68867	-431.90793	1490.08899	171.37003	-203.19521	1464.01221	164.88185	-428.14047	1483.92664	430.29623	-218.20186	1330.63293	241.73625	-388.65854	1286.49780	350.97397	-228.74913	1425.82410	387.86621	-447.52493	1332.15405	702.30792	-80.64960	1039.41724	239.53661	-612.86731	1309.88550	680.67926	-100.25456	869.49261	88.69841	-432.87253	1060.89172	478.97687	-340.24576	1023.20502	395.28799	-215.51289	986.95911	639.80859	-485.76874	496.38828	677.22693	-225.76649	539.24249	423.79660	-384.92422	162.22679	781.04956	-340.63791	125.00926	391.45444	
499	4.980	-287.66025	1364.19922	81.02205	-350.37521	1616.20251	249.54164	-434.63828	1490.09521	166.89565	-206.28050	1463.75708	160.08600	-430.89099	1484.07544	425.63803	-220.56123	1330.39026	238.41817	-390.62341	1286.60913	346.97061	-231.70404	1426.81055	383.66443	-451.25909	1331.52905	696.96484	-81.14306	1040.07788	237.61205	-616.56512	1309.34180	673.18640	-99.46849	870.67896	86.91655	-435.59888	1061.32410	475.31299	-343.25577	1023.90253	390.59027	-218.76048	987.32196	635.44141	-489.50073	497.35855	671.94012	-226.75626	539.24420	423.38138	-393.01108	161.94269	776.96954	-337.83334	123.40292	392.02219	
